<svg width="43" height="46" viewBox="0 0 43 46" fill="none" xmlns="http://www.w3.org/2000/svg">
<path d="M42.2674 35.649C41.734 31.7438 38.5915 30.8323 37.0828 30.3936C36.8473 30.3257 36.6455 30.2675 36.4869 30.2069C35.4731 29.8239 32.124 28.5124 28.8589 27.0846C26.6054 26.098 26.4949 24.1999 26.5309 23.543C27.5448 22.8715 31.1533 19.8462 30.99 10.9812C30.8626 4.02888 27.4967 0.128478 21.5096 0L21.5048 0.00242394L21.4976 0H21.488C15.5033 0.130902 12.1374 4.02888 12.0101 10.9812C11.8443 19.8462 15.4529 22.8691 16.4667 23.543C16.5028 24.1999 16.3923 26.098 14.1411 27.0846C11.2124 28.367 7.90656 29.6784 6.5107 30.2069C6.35453 30.2675 6.15032 30.3233 5.91727 30.3936C4.40849 30.8323 1.266 31.7414 0.732637 35.649C0.168044 39.7652 0.00227078 41.6609 0.00227078 41.6802C-0.0193519 41.913 0.115189 42.1287 0.331416 42.2136C0.415504 42.2451 8.83393 45.4861 21.5 45.4861C34.1661 45.4861 42.5845 42.2475 42.6686 42.2136C42.8824 42.1287 43.0194 41.913 42.9978 41.6802C42.9978 41.6609 42.832 39.7676 42.2674 35.649ZM21.5 44.4365C10.5229 44.4365 2.80841 41.976 1.0762 41.37C1.15068 40.6233 1.34768 38.8101 1.76091 35.7921C2.20298 32.5631 4.7064 31.8359 6.20317 31.402C6.46985 31.3244 6.69809 31.2565 6.87588 31.1911C8.27895 30.6602 11.6064 29.3366 14.5519 28.0494C17.3196 26.8374 17.668 24.309 17.4686 23.1406C17.4398 22.9806 17.3389 22.84 17.1947 22.7649C17.1515 22.7431 12.875 20.3747 13.048 11.0031C13.1681 4.52098 16.0127 1.17327 21.5 1.04964C26.9874 1.17327 29.8344 4.52098 29.9521 11.0006C30.1227 20.3723 25.8462 22.7406 25.8053 22.76C25.6588 22.8352 25.5555 22.9758 25.529 23.1382C25.3272 24.3042 25.678 26.8325 28.4457 28.0446C31.7299 29.4821 35.1007 30.7984 36.1193 31.1862C36.2971 31.2541 36.5278 31.322 36.7945 31.3996C38.2912 31.8335 40.7971 32.5607 41.2391 35.7896C41.6524 38.8101 41.8494 40.6209 41.9238 41.3675C40.1916 41.976 32.4771 44.4365 21.5 44.4365Z" fill="black" fill-opacity="0.3"/>
</svg>
