<svg width="253" height="65" viewBox="0 0 253 65" fill="none" xmlns="http://www.w3.org/2000/svg">
<path d="M225.588 56.8798L243.42 12.1507H225.588V5.29759H253L232.441 56.8798H225.588Z" fill="#5B6AEA"/>
<path d="M210 56.5856V20.5856C212.662 22.0769 215.776 21.207 217 20.5856V56.5856H210Z" fill="#5B6AEA" stroke="#5B6AEA" stroke-width="0.220065"/>
<path d="M169.961 56.8798V5.29759H176.814L187.057 36.7627L197.3 5.29759H204.153V56.8798H197.3V26.2252L190.447 47.2265H183.668L176.814 26.2252V56.8798H169.961Z" fill="#5B6AEA"/>
<path d="M138.203 56.8798C136.729 56.8798 135.477 56.3639 134.445 55.3323C133.413 54.3006 132.898 53.0479 132.898 51.5742V40.1524L139.751 41.6999V47.3739C139.751 48.1108 139.996 48.7494 140.488 49.2898C141.028 49.7811 141.642 50.0267 142.33 50.0267H150.73C151.467 50.0267 152.081 49.7811 152.572 49.2898C153.113 48.7494 153.383 48.1108 153.383 47.3739V34.4047C153.383 33.6678 153.113 33.0537 152.572 32.5625C152.081 32.0221 151.467 31.7519 150.73 31.7519H138.203C136.729 31.7519 135.477 31.2361 134.445 30.2044C133.413 29.1728 132.898 27.9201 132.898 26.4463V10.6032C132.898 9.12941 133.413 7.8767 134.445 6.84506C135.477 5.81341 136.729 5.29759 138.203 5.29759H154.931C156.404 5.29759 157.657 5.81341 158.689 6.84506C159.72 7.8767 160.236 9.12941 160.236 10.6032V18.5616L153.383 16.9404V14.8034C153.383 14.0666 153.113 13.4525 152.572 12.9612C152.081 12.4208 151.467 12.1507 150.73 12.1507H142.33C141.642 12.1507 141.028 12.4208 140.488 12.9612C139.996 13.4525 139.751 14.0666 139.751 14.8034V22.246C139.751 22.9829 139.996 23.6215 140.488 24.1619C141.028 24.6532 141.642 24.8988 142.33 24.8988H154.931C156.404 24.8988 157.657 25.4146 158.689 26.4463C159.72 27.4779 160.236 28.7306 160.236 30.2044V51.5742C160.236 53.0479 159.72 54.3006 158.689 55.3323C157.657 56.3639 156.404 56.8798 154.931 56.8798H138.203Z" fill="#5B6AEA"/>
<path d="M100.878 56.8798V5.29759H107.731L121.437 39.7103V5.29759H128.29V56.8798H121.437L107.731 22.4671V56.8798H100.878Z" fill="#5B6AEA"/>
<path d="M71.2787 56.8798C69.805 56.8798 68.5523 56.364 67.5206 55.3323C66.489 54.3007 65.9731 53.048 65.9731 51.5742V40.1524L72.8262 41.6999V47.3739C72.8262 48.1108 73.0718 48.7494 73.5631 49.2898C74.1035 49.7811 74.7176 50.0267 75.4053 50.0267H83.8058C84.5427 50.0267 85.1568 49.7811 85.6481 49.2898C86.1884 48.7494 86.4586 48.1108 86.4586 47.3739V34.4047C86.4586 33.6678 86.1884 33.0537 85.6481 32.5625C85.1568 32.0221 84.5427 31.7519 83.8058 31.7519H71.2787C69.805 31.7519 68.5523 31.2361 67.5206 30.2044C66.489 29.1728 65.9731 27.9201 65.9731 26.4463V10.6032C65.9731 9.12943 66.489 7.87672 67.5206 6.84507C68.5523 5.81343 69.805 5.29761 71.2787 5.29761H88.0061C89.4799 5.29761 90.7326 5.81343 91.7642 6.84507C92.7959 7.87672 93.3117 9.12943 93.3117 10.6032V18.5616L86.4586 16.9404V14.8035C86.4586 14.0666 86.1884 13.4525 85.6481 12.9612C85.1568 12.4209 84.5427 12.1507 83.8058 12.1507H75.4053C74.7176 12.1507 74.1035 12.4209 73.5631 12.9612C73.0718 13.4525 72.8262 14.0666 72.8262 14.8035V22.246C72.8262 22.9829 73.0718 23.6216 73.5631 24.1619C74.1035 24.6532 74.7176 24.8988 75.4053 24.8988H88.0061C89.4799 24.8988 90.7326 25.4147 91.7642 26.4463C92.7959 27.4779 93.3117 28.7307 93.3117 30.2044V51.5742C93.3117 53.048 92.7959 54.3007 91.7642 55.3323C90.7326 56.364 89.4799 56.8798 88.0061 56.8798H71.2787Z" fill="#5B6AEA"/>
<g filter="url(#filter0_d_811_118)">
<path d="M30.6793 41.5192C33.8241 39.1382 40.2352 32.6497 40.7208 25.7432C40.139 22.4386 37.0494 17.2776 29.3446 23.0699C24.8222 27.2795 17.0287 37.9188 22.0337 46.7993C23.5321 49.648 29.0051 53.7217 38.9093 47.2274C41.443 45.5049 46.9105 41.2328 49.5718 37.266L50.0193 36.5559C49.881 36.7911 49.7315 37.028 49.5718 37.266L45.3439 43.9752L44.1631 45.5426L42.3424 47.7253L40.2771 49.9777L35.9279 54.1047C29.1265 60.2479 12.5897 67.718 11.1419 47.0707C11.2191 41.4781 14.0082 27.9043 24.5467 18.3501C28.7413 14.4669 38.5999 7.881 44.477 12.6031C48.2143 15.929 48.2101 29.0754 30.6793 41.5192Z" fill="url(#paint0_radial_811_118)"/>
</g>
<path d="M211.449 8.2106L213.306 4.5856L217.285 13.1618C215.516 13.2326 215.192 14.6059 215.251 15.2838C215.039 16.0618 214.632 16.551 214.455 16.6984C214.172 17.0521 213.276 17.1405 212.864 17.1405C211.661 17.4234 211.302 18.5551 211.272 19.0856C209.858 18.5197 209.209 17.0226 209.062 16.3447C208.779 14.8594 209.533 12.8376 209.946 12.0124L211.449 8.2106Z" fill="#5B6AEA"/>
<path d="M5.67053 18.2561C5.47216 23.7319 7.42204 27.4213 8.42178 28.5816C7.64238 25.2745 7.98504 22.4751 8.2538 21.4887C8.63027 18.059 10.5024 15.2921 11.3914 14.3374C12.5823 12.3409 11.44 11.7347 10.7201 11.6812C7.03935 11.8769 5.82008 16.146 5.67053 18.2561Z" fill="url(#paint1_linear_811_118)"/>
<path d="M18.4218 7.54281C13.9439 13.8731 13.394 19.7528 13.6787 21.9013C15.3184 17.3814 17.8933 14.332 18.9759 13.3723C22.0792 9.60283 26.44 7.77717 28.2325 7.33553C31.1897 5.89414 30.3068 4.2913 29.4957 3.67006C24.9857 1.04966 20.2339 5.16006 18.4218 7.54281Z" fill="url(#paint2_linear_811_118)"/>
<path d="M42.241 2.43635C31.5616 5.72002 25.7823 11.3814 24.2277 13.8017C30.0662 10.33 35.69 9.05063 37.7721 8.8449C44.6324 7.20573 51.2331 8.47967 53.6759 9.32153C58.3301 9.97584 58.7208 7.68516 58.3345 6.45804C55.4558 0.494253 46.4061 1.292 42.241 2.43635Z" fill="url(#paint3_linear_811_118)"/>
<defs>
<filter id="filter0_d_811_118" x="10.1963" y="10.9626" width="40.7686" height="51.5634" filterUnits="userSpaceOnUse" color-interpolation-filters="sRGB">
<feFlood flood-opacity="0" result="BackgroundImageFix"/>
<feColorMatrix in="SourceAlpha" type="matrix" values="0 0 0 0 0 0 0 0 0 0 0 0 0 0 0 0 0 0 127 0" result="hardAlpha"/>
<feOffset dy="0.945582"/>
<feGaussianBlur stdDeviation="0.472791"/>
<feComposite in2="hardAlpha" operator="out"/>
<feColorMatrix type="matrix" values="0 0 0 0 0 0 0 0 0 0 0 0 0 0 0 0 0 0 0.25 0"/>
<feBlend mode="normal" in2="BackgroundImageFix" result="effect1_dropShadow_811_118"/>
<feBlend mode="normal" in="SourceGraphic" in2="effect1_dropShadow_811_118" result="shape"/>
</filter>
<radialGradient id="paint0_radial_811_118" cx="0" cy="0" r="1" gradientUnits="userSpaceOnUse" gradientTransform="translate(29.8876 36.2343) rotate(63.5559) scale(19.7542 23.6152)">
<stop stop-color="#5B6AEA"/>
<stop offset="0.5" stop-color="#E1E5FD"/>
<stop offset="1" stop-color="#5B6AEA"/>
</radialGradient>
<linearGradient id="paint1_linear_811_118" x1="9.66558" y1="11.4337" x2="6.0176" y2="28.0539" gradientUnits="userSpaceOnUse">
<stop stop-color="#E1E5FD"/>
<stop offset="1" stop-color="#5B6AEA"/>
</linearGradient>
<linearGradient id="paint2_linear_811_118" x1="28.4389" y1="2.55983" x2="11.2408" y2="19.4135" gradientUnits="userSpaceOnUse">
<stop stop-color="#E1E5FD"/>
<stop offset="1" stop-color="#5B6AEA"/>
</linearGradient>
<linearGradient id="paint3_linear_811_118" x1="58.0944" y1="4.54922" x2="23.6096" y2="9.47383" gradientUnits="userSpaceOnUse">
<stop stop-color="#E1E5FD"/>
<stop offset="1" stop-color="#5B6AEA"/>
</linearGradient>
</defs>
</svg>
