<svg width="21" height="25" viewBox="0 0 21 25" fill="none" xmlns="http://www.w3.org/2000/svg">
<path d="M3.51671 19.748V10.0093C3.51671 8.28734 4.20074 6.63594 5.41832 5.41836C6.6359 4.20078 8.28729 3.51675 10.0092 3.51675C11.7311 3.51675 13.3825 4.20078 14.6001 5.41836C15.8177 6.63594 16.5017 8.28734 16.5017 10.0093V19.748M3.51671 19.748H16.5017M3.51671 19.748H1.35254M16.5017 19.748H18.6659M8.92712 22.9943H11.0913" stroke="#1E1E1E" stroke-width="2.70521" stroke-linecap="round" stroke-linejoin="round"/>
<path d="M10.0093 3.51677C10.6069 3.51677 11.0914 3.0323 11.0914 2.43468C11.0914 1.83707 10.6069 1.3526 10.0093 1.3526C9.41171 1.3526 8.92725 1.83707 8.92725 2.43468C8.92725 3.0323 9.41171 3.51677 10.0093 3.51677Z" stroke="#1E1E1E" stroke-width="2.70521"/>
</svg>
