<svg width="18" height="23" viewBox="0 0 18 23" fill="none" xmlns="http://www.w3.org/2000/svg">
<path d="M8.65667 17.3133C9.23064 17.3133 9.7811 17.0853 10.187 16.6795C10.5928 16.2736 10.8208 15.7231 10.8208 15.1492C10.8208 14.5752 10.5928 14.0247 10.187 13.6189C9.7811 13.213 9.23064 12.985 8.65667 12.985C8.08269 12.985 7.53223 13.213 7.12637 13.6189C6.72051 14.0247 6.4925 14.5752 6.4925 15.1492C6.4925 15.7231 6.72051 16.2736 7.12637 16.6795C7.53223 17.0853 8.08269 17.3133 8.65667 17.3133ZM15.1492 7.57458C15.7231 7.57458 16.2736 7.80259 16.6795 8.20845C17.0853 8.61431 17.3133 9.16478 17.3133 9.73875V20.5596C17.3133 21.1336 17.0853 21.684 16.6795 22.0899C16.2736 22.4957 15.7231 22.7238 15.1492 22.7238H2.16417C1.59019 22.7238 1.03973 22.4957 0.63387 22.0899C0.22801 21.684 0 21.1336 0 20.5596V9.73875C0 9.16478 0.22801 8.61431 0.63387 8.20845C1.03973 7.80259 1.59019 7.57458 2.16417 7.57458H3.24625V5.41042C3.24625 3.97549 3.81627 2.59932 4.83092 1.58467C5.84557 0.570024 7.22174 0 8.65667 0C9.36717 0 10.0707 0.139945 10.7271 0.411843C11.3836 0.683742 11.98 1.08227 12.4824 1.58467C12.9848 2.08708 13.3833 2.68352 13.6552 3.33994C13.9271 3.99636 14.0671 4.69991 14.0671 5.41042V7.57458H15.1492ZM8.65667 2.16417C7.79571 2.16417 6.97001 2.50618 6.36122 3.11497C5.75243 3.72376 5.41042 4.54946 5.41042 5.41042V7.57458H11.9029V5.41042C11.9029 4.54946 11.5609 3.72376 10.9521 3.11497C10.3433 2.50618 9.51763 2.16417 8.65667 2.16417Z" fill="#1E1E1E"/>
</svg>
