<svg width="20" height="22" viewBox="0 0 20 22" fill="none" xmlns="http://www.w3.org/2000/svg">
<path d="M9.74036 12.0251C13.1025 12.0251 15.8281 9.33322 15.8281 6.01259C15.8281 2.69196 13.1025 6.10352e-05 9.74036 6.10352e-05C6.37818 6.10352e-05 3.65259 2.69196 3.65259 6.01259C3.65259 9.33322 6.37818 12.0251 9.74036 12.0251Z" fill="#1E1E1E"/>
<path d="M19.47 18.0473C19.4755 17.9618 19.4755 17.8759 19.47 17.7904C19.4459 17.4741 19.3562 17.1652 19.2058 16.8811C18.614 15.7247 16.9549 15.2009 15.5705 14.9043C14.5828 14.6987 13.5793 14.5665 12.5693 14.509L11.5125 14.4299H11.0369H10.4451H9.02903H8.43724H7.96168L6.9049 14.509C5.8949 14.5665 4.89135 14.6987 3.90364 14.9043C2.51926 15.1613 0.860112 15.695 0.268314 16.8811C0.117948 17.1652 0.0282113 17.4741 0.00411882 17.7904C-0.00137294 17.8759 -0.00137294 17.9618 0.00411882 18.0473C-0.000951622 18.1329 -0.000951622 18.2187 0.00411882 18.3043C0.0328633 18.6179 0.126163 18.9233 0.278882 19.2037C0.87068 20.3601 2.52983 20.8839 3.91421 21.1804C4.90375 21.3764 5.90654 21.5085 6.91547 21.5758L7.97225 21.645H8.22588H8.4478H11.0475H11.2694H11.523L12.5798 21.5758C13.5887 21.5085 14.5915 21.3764 15.5811 21.1804C16.9655 20.9136 18.6246 20.3898 19.2164 19.2037C19.362 18.9144 19.4515 18.6032 19.4806 18.2845C19.4819 18.2053 19.4784 18.1261 19.47 18.0473Z" fill="#1E1E1E"/>
</svg>
