<svg width="30" height="30" viewBox="0 0 30 30" fill="none" xmlns="http://www.w3.org/2000/svg">
<circle cx="15" cy="15" r="14.5" fill="url(#paint0_linear_112_78)" stroke="url(#paint1_linear_112_78)"/>
<path d="M12.6279 7C10.9225 7 9.53488 8.43565 9.53488 10.2C9.53488 11.9644 10.9225 13.4 12.6279 13.4C14.3333 13.4 15.7209 11.9644 15.7209 10.2C15.7209 8.43565 14.3333 7 12.6279 7ZM12.6279 7.45714C14.0945 7.45714 15.2791 8.68267 15.2791 10.2C15.2791 11.7173 14.0945 12.9429 12.6279 12.9429C11.1613 12.9429 9.97674 11.7173 9.97674 10.2C9.97674 8.68267 11.1613 7.45714 12.6279 7.45714ZM20.1395 7.45714C18.8 7.45714 17.7093 8.58553 17.7093 9.97143C17.7093 11.3573 18.8 12.4857 20.1395 12.4857C21.4791 12.4857 22.5698 11.3573 22.5698 9.97143C22.5698 8.58553 21.4791 7.45714 20.1395 7.45714ZM20.1395 7.91429C21.2403 7.91429 22.1279 8.83259 22.1279 9.97143C22.1279 11.1103 21.2403 12.0286 20.1395 12.0286C19.0388 12.0286 18.1512 11.1103 18.1512 9.97143C18.1512 8.83259 19.0388 7.91429 20.1395 7.91429ZM20.1395 13.8571C18.2339 13.8571 16.5834 14.4639 15.7762 15.4857C14.8396 15.1737 13.7676 15 12.6279 15C10.8181 15 9.18184 15.4416 7.98147 16.1714C6.7811 16.9013 6 17.9397 6 19.1143V22.7714C6.00001 22.8911 6.10526 23 6.22093 23H19.0349C19.1506 23 19.2558 22.8911 19.2558 22.7714V20.0286C21.1212 20.0286 22.4423 20.0286 24.7791 20.0286C24.8947 20.0285 25 19.9197 25 19.8V16.8286C25 15.9372 24.4112 15.1781 23.5294 14.6643C22.6477 14.1504 21.457 13.8571 20.1395 13.8571ZM20.1395 14.3143C21.3924 14.3143 22.52 14.6007 23.3154 15.0643C24.1109 15.5279 24.5581 16.1442 24.5581 16.8286V19.5714C22.3909 19.5714 21.0506 19.5714 19.2558 19.5714V19.1143C19.2558 17.9397 18.4747 16.9013 17.2743 16.1714C16.9548 15.9771 16.6014 15.8005 16.2249 15.65C16.9462 14.8685 18.4165 14.3143 20.1395 14.3143ZM12.6279 15.4571C14.3676 15.4571 15.9377 15.8859 17.0534 16.5643C18.1692 17.2426 18.814 18.1503 18.814 19.1143V22.5429H6.44186V19.1143C6.44186 18.1503 7.08665 17.2426 8.2024 16.5643C9.31815 15.8859 10.8882 15.4571 12.6279 15.4571Z" fill="black"/>
<defs>
<linearGradient id="paint0_linear_112_78" x1="22.5" y1="3" x2="5.5" y2="28" gradientUnits="userSpaceOnUse">
<stop stop-color="white"/>
<stop offset="1" stop-color="#5B6AEA"/>
</linearGradient>
<linearGradient id="paint1_linear_112_78" x1="15" y1="0" x2="15" y2="30" gradientUnits="userSpaceOnUse">
<stop stop-color="white"/>
<stop offset="1" stop-color="#5B6AEA"/>
</linearGradient>
</defs>
</svg>
