<svg width="13" height="13" viewBox="0 0 13 13" fill="none" xmlns="http://www.w3.org/2000/svg">
<path d="M0.5 4.87491V11.1251C0.5 11.2908 0.565837 11.4498 0.683029 11.567C0.80022 11.6842 0.959166 11.75 1.1249 11.75H11.1251C11.2908 11.75 11.4498 11.6842 11.567 11.567C11.6842 11.4498 11.75 11.2908 11.75 11.1251V4.87491M0.5 4.87491H11.75M0.5 4.87491V2.37501C0.5 2.20927 0.565837 2.05033 0.683029 1.93314C0.80022 1.81594 0.959166 1.75011 1.1249 1.75011H11.1251C11.2908 1.75011 11.4498 1.81594 11.567 1.93314C11.6842 2.05033 11.75 2.20927 11.75 2.37501V4.87491" stroke="#306CFE" stroke-linecap="round" stroke-linejoin="round"/>
<path d="M8.6248 0.5V2.9999M3.625 0.5V2.9999" stroke="#344054" stroke-linecap="round" stroke-linejoin="round"/>
</svg>
