<svg width="33" height="33" viewBox="0 0 33 33" fill="none" xmlns="http://www.w3.org/2000/svg">
<rect width="33" height="33" rx="16.5" fill="#F5F5F5"/>
<rect x="2" y="2" width="29" height="29" rx="14.5" fill="#E1E5FD"/>
<path d="M17 14.1176C19.1053 14.1176 20.7895 15.7647 20.7895 17.8235C20.7895 19.8824 19.1053 21.5294 17 21.5294C14.8947 21.5294 13.2105 19.8824 13.2105 17.8235C13.2105 15.7647 14.8947 14.1176 17 14.1176ZM17 14.9412C16.2183 14.9412 15.4686 15.2449 14.9159 15.7854C14.3632 16.3259 14.0526 17.0591 14.0526 17.8235C14.0526 18.588 14.3632 19.3211 14.9159 19.8617C15.4686 20.4022 16.2183 20.7059 17 20.7059C17.7817 20.7059 18.5314 20.4022 19.0841 19.8617C19.6368 19.3211 19.9474 18.588 19.9474 17.8235C19.9474 17.0591 19.6368 16.3259 19.0841 15.7854C18.5314 15.2449 17.7817 14.9412 17 14.9412ZM11.5263 11.6471H13.2105L14.8947 10H19.1053L20.7895 11.6471H22.4737C23.1437 11.6471 23.7863 11.9074 24.2601 12.3707C24.7338 12.834 25 13.4624 25 14.1176V21.5294C25 22.1847 24.7338 22.8131 24.2601 23.2764C23.7863 23.7397 23.1437 24 22.4737 24H11.5263C10.8563 24 10.2137 23.7397 9.73994 23.2764C9.26616 22.8131 9 22.1847 9 21.5294V14.1176C9 13.4624 9.26616 12.834 9.73994 12.3707C10.2137 11.9074 10.8563 11.6471 11.5263 11.6471ZM15.24 10.8235L13.5558 12.4706H11.5263C11.0796 12.4706 10.6512 12.6441 10.3354 12.953C10.0195 13.2619 9.84211 13.6808 9.84211 14.1176V21.5294C9.84211 21.9662 10.0195 22.3852 10.3354 22.6941C10.6512 23.0029 11.0796 23.1765 11.5263 23.1765H22.4737C22.9204 23.1765 23.3487 23.0029 23.6646 22.6941C23.9805 22.3852 24.1579 21.9662 24.1579 21.5294V14.1176C24.1579 13.6808 23.9805 13.2619 23.6646 12.953C23.3487 12.6441 22.9204 12.4706 22.4737 12.4706H20.4442L18.76 10.8235H15.24Z" fill="black"/>
</svg>
