<svg width="6" height="11" viewBox="0 0 6 11" fill="none" xmlns="http://www.w3.org/2000/svg">
<path d="M0.738776 0.128991L5.5969 5.11274C5.68223 5.20028 5.72998 5.31769 5.72998 5.43993C5.72998 5.56217 5.68223 5.67958 5.5969 5.76712L0.738776 10.7527C0.69903 10.7936 0.651509 10.826 0.599017 10.8482C0.546525 10.8703 0.490128 10.8817 0.433152 10.8817C0.376176 10.8817 0.319777 10.8703 0.267286 10.8482C0.214794 10.826 0.167273 10.7936 0.127527 10.7527C0.0457487 10.669 -3.48091e-05 10.5566 -3.48091e-05 10.4396C-3.48091e-05 10.3226 0.0457487 10.2102 0.127527 10.1265L4.69596 5.43993L0.127527 0.754303C0.0460291 0.670633 0.000422955 0.558448 0.000422955 0.441647C0.000422955 0.324846 0.0460291 0.212661 0.127527 0.128991C0.167273 0.0881688 0.214794 0.055723 0.267286 0.0335685C0.319777 0.0114141 0.376176 0 0.433152 0C0.490128 0 0.546525 0.0114141 0.599017 0.0335685C0.651509 0.055723 0.69903 0.0881688 0.738776 0.128991Z" fill="#787878"/>
</svg>
