<svg width="8" height="15" viewBox="0 0 8 15" fill="none" xmlns="http://www.w3.org/2000/svg">
<path d="M0.985075 14.337L7.46258 7.69198C7.57634 7.57527 7.64002 7.41872 7.64002 7.25573C7.64002 7.09274 7.57634 6.9362 7.46258 6.81948L0.985077 0.171982C0.932082 0.117553 0.86872 0.0742916 0.798731 0.0447525C0.728742 0.0152134 0.653545 -4.42547e-06 0.577578 -4.43212e-06C0.501611 -4.43876e-06 0.426412 0.0152133 0.356423 0.0447524C0.286434 0.0742915 0.223072 0.117553 0.170078 0.171982C0.0610402 0.2836 -4.49152e-06 0.433446 -4.50517e-06 0.589484C-4.51881e-06 0.74552 0.0610402 0.895365 0.170078 1.00698L6.26133 7.25573L0.170076 13.5032C0.0614134 13.6148 0.000604695 13.7644 0.000604681 13.9201C0.000604667 14.0758 0.0614133 14.2254 0.170076 14.337C0.223071 14.3914 0.286433 14.4347 0.356422 14.4642C0.426411 14.4938 0.501609 14.509 0.577577 14.509C0.653544 14.509 0.728741 14.4938 0.79873 14.4642C0.868719 14.4347 0.93208 14.3914 0.985075 14.337Z" fill="#5B6AEA"/>
</svg>
