<svg width="33" height="33" viewBox="0 0 33 33" fill="none" xmlns="http://www.w3.org/2000/svg">
<rect width="33" height="33" rx="16.5" fill="#F5F5F5"/>
<rect x="2" y="2" width="29" height="29" rx="14.5" fill="#E1E5FD"/>
<path d="M17 15.1991C19.1053 15.1991 20.7895 16.864 20.7895 18.945C20.7895 21.0261 19.1053 22.6909 17 22.6909C14.8947 22.6909 13.2105 21.0261 13.2105 18.945C13.2105 16.864 14.8947 15.1991 17 15.1991ZM17 16.0315C16.2183 16.0315 15.4686 16.3385 14.9159 16.8849C14.3632 17.4313 14.0526 18.1723 14.0526 18.945C14.0526 19.7177 14.3632 20.4588 14.9159 21.0052C15.4686 21.5516 16.2183 21.8585 17 21.8585C17.7817 21.8585 18.5314 21.5516 19.0841 21.0052C19.6368 20.4588 19.9474 19.7177 19.9474 18.945C19.9474 18.1723 19.6368 17.4313 19.0841 16.8849C18.5314 16.3385 17.7817 16.0315 17 16.0315ZM11.5263 12.7018H13.2105L14.8947 11.037H19.1053L20.7895 12.7018H22.4737C23.1437 12.7018 23.7863 12.9649 24.2601 13.4333C24.7338 13.9016 25 14.5368 25 15.1991V22.6909C25 23.3533 24.7338 23.9885 24.2601 24.4568C23.7863 24.9251 23.1437 25.1882 22.4737 25.1882H11.5263C10.8563 25.1882 10.2137 24.9251 9.73994 24.4568C9.26616 23.9885 9 23.3533 9 22.6909V15.1991C9 14.5368 9.26616 13.9016 9.73994 13.4333C10.2137 12.9649 10.8563 12.7018 11.5263 12.7018ZM15.24 11.8694L13.5558 13.5343H11.5263C11.0796 13.5343 10.6512 13.7097 10.3354 14.0219C10.0195 14.3341 9.84211 14.7576 9.84211 15.1991V22.6909C9.84211 23.1325 10.0195 23.556 10.3354 23.8682C10.6512 24.1804 11.0796 24.3558 11.5263 24.3558H22.4737C22.9204 24.3558 23.3487 24.1804 23.6646 23.8682C23.9805 23.556 24.1579 23.1325 24.1579 22.6909V15.1991C24.1579 14.7576 23.9805 14.3341 23.6646 14.0219C23.3487 13.7097 22.9204 13.5343 22.4737 13.5343H20.4442L18.76 11.8694H15.24Z" fill="black"/>
</svg>
