<svg width="27" height="20" viewBox="0 0 27 20" fill="none" xmlns="http://www.w3.org/2000/svg">
<path d="M13.5 0C14.6636 0 15.7796 0.472289 16.6024 1.31297C17.4252 2.15365 17.8875 3.29386 17.8875 4.48276C17.8875 5.67166 17.4252 6.81187 16.6024 7.65255C15.7796 8.49323 14.6636 8.96552 13.5 8.96552C12.3364 8.96552 11.2204 8.49323 10.3976 7.65255C9.57475 6.81187 9.1125 5.67166 9.1125 4.48276C9.1125 3.29386 9.57475 2.15365 10.3976 1.31297C11.2204 0.472289 12.3364 0 13.5 0ZM4.05 3.10345C4.44889 3.10345 4.84387 3.18372 5.2124 3.33968C5.58093 3.49565 5.91578 3.72425 6.19784 4.01243C6.47989 4.30061 6.70364 4.64273 6.85628 5.01926C7.00893 5.39579 7.0875 5.79935 7.0875 6.2069C7.0875 6.61445 7.00893 7.01801 6.85628 7.39453C6.70364 7.77106 6.47989 8.11318 6.19784 8.40137C5.91578 8.68955 5.58093 8.91815 5.2124 9.07411C4.84387 9.23007 4.44889 9.31034 4.05 9.31034C3.65111 9.31034 3.25613 9.23007 2.8876 9.07411C2.51907 8.91815 2.18422 8.68955 1.90216 8.40137C1.62011 8.11318 1.39636 7.77106 1.24372 7.39453C1.09107 7.01801 1.0125 6.61445 1.0125 6.2069C1.0125 5.79935 1.09107 5.39579 1.24372 5.01926C1.39636 4.64273 1.62011 4.30061 1.90216 4.01243C2.18422 3.72425 2.51907 3.49565 2.8876 3.33968C3.25613 3.18372 3.65111 3.10345 4.05 3.10345ZM0 17.2414C0 14.194 2.41734 11.7241 5.4 11.7241C5.94 11.7241 6.46312 11.806 6.95672 11.9569C5.56875 13.5431 4.725 15.6379 4.725 17.931V18.6207C4.725 19.1121 4.82625 19.5776 5.00766 20H1.35C0.603281 20 0 19.3836 0 18.6207V17.2414ZM21.9923 20C22.1737 19.5776 22.275 19.1121 22.275 18.6207V17.931C22.275 15.6379 21.4312 13.5431 20.0433 11.9569C20.5369 11.806 21.06 11.7241 21.6 11.7241C24.5827 11.7241 27 14.194 27 17.2414V18.6207C27 19.3836 26.3967 20 25.65 20H21.9923ZM19.9125 6.2069C19.9125 5.38381 20.2325 4.59444 20.8022 4.01243C21.3718 3.43042 22.1444 3.10345 22.95 3.10345C23.7556 3.10345 24.5282 3.43042 25.0978 4.01243C25.6675 4.59444 25.9875 5.38381 25.9875 6.2069C25.9875 7.02998 25.6675 7.81936 25.0978 8.40137C24.5282 8.98337 23.7556 9.31034 22.95 9.31034C22.1444 9.31034 21.3718 8.98337 20.8022 8.40137C20.2325 7.81936 19.9125 7.02998 19.9125 6.2069ZM6.75 17.931C6.75 14.1207 9.77062 11.0345 13.5 11.0345C17.2294 11.0345 20.25 14.1207 20.25 17.931V18.6207C20.25 19.3836 19.6467 20 18.9 20H8.1C7.35328 20 6.75 19.3836 6.75 18.6207V17.931Z" fill="#1E1E1E"/>
</svg>
