<svg width="17" height="20" viewBox="0 0 17 20" fill="none" xmlns="http://www.w3.org/2000/svg">
<path d="M9.33251 1.85704L15.0309 6.79738C15.3515 7.0743 15.5428 7.50095 15.5428 7.95632V16.9847C15.5428 17.8196 14.9231 18.4616 14.1994 18.4616H11.6571V13.59C11.6571 12.8419 11.3757 12.1246 10.8747 11.5956C10.3737 11.0667 9.69422 10.7696 8.98571 10.7696H8.01429C7.30578 10.7696 6.62629 11.0667 6.1253 11.5956C5.62431 12.1246 5.34286 12.8419 5.34286 13.59V18.4616H2.80064C2.07692 18.4616 1.45715 17.8196 1.45715 16.9847V7.95734C1.45715 7.50095 1.64852 7.07532 1.96909 6.79841L7.66749 1.85602C7.9013 1.65065 8.19585 1.53821 8.5 1.53821C8.80415 1.53821 9.0987 1.65167 9.33251 1.85704ZM14.1994 19.999C15.7634 19.999 17 18.6298 17 16.9837V7.95632C17.0011 7.5077 16.908 7.06439 16.7275 6.65828C16.5469 6.25218 16.2833 5.89337 15.9557 5.60768L10.2583 0.667342C9.76381 0.235975 9.14241 0 8.50097 0C7.85953 0 7.23814 0.235975 6.74366 0.667342L1.04429 5.60871C0.716672 5.8944 0.453096 6.2532 0.272529 6.65931C0.0919608 7.06541 -0.00111046 7.50872 9.99775e-06 7.95734V16.9847C9.99775e-06 18.6308 1.23664 20 2.80064 20L14.1994 19.999Z" fill="#1E1E1E"/>
</svg>
