<svg width="14" height="18" viewBox="0 0 14 18" fill="none" xmlns="http://www.w3.org/2000/svg">
<path d="M13.0667 15.1579C13.0667 15.9117 12.7717 16.6346 12.2466 17.1676C11.7215 17.7006 11.0093 18 10.2667 18H3.73333C2.99073 18 2.27854 17.7006 1.75343 17.1676C1.22833 16.6346 0.933333 15.9117 0.933333 15.1579V3.78947H0V0.947368H4.2L5.13333 0H8.86667L9.8 0.947368H14V3.78947H13.0667V15.1579ZM1.86667 3.78947V15.1579C1.86667 15.6604 2.06333 16.1423 2.4134 16.4977C2.76347 16.853 3.23826 17.0526 3.73333 17.0526H10.2667C10.7617 17.0526 11.2365 16.853 11.5866 16.4977C11.9367 16.1423 12.1333 15.6604 12.1333 15.1579V3.78947H1.86667ZM13.0667 2.84211V1.89474H9.33333L8.4 0.947368H5.6L4.66667 1.89474H0.933333V2.84211H13.0667ZM3.73333 5.68421H4.66667V15.1579H3.73333V5.68421ZM9.33333 5.68421H10.2667V15.1579H9.33333V5.68421Z" fill="#FF0000"/>
</svg>
