<svg width="24" height="24" viewBox="0 0 24 24" fill="none" xmlns="http://www.w3.org/2000/svg">
<rect width="24" height="24" rx="12" fill="#D9D9D9"/>
<path d="M11.7143 14.044V9.10114L10.3829 10.4326L9.97829 10.0223L12 8L14.0223 10.0223L13.6177 10.4331L12.2857 9.10114V14.044H11.7143ZM8.92343 16C8.66019 16 8.44057 15.912 8.26457 15.736C8.08857 15.56 8.00038 15.3402 8 15.0766V13.692H8.57143V15.0766C8.57143 15.1646 8.608 15.2453 8.68114 15.3189C8.75429 15.3924 8.83486 15.429 8.92286 15.4286H15.0771C15.1648 15.4286 15.2453 15.392 15.3189 15.3189C15.3924 15.2457 15.429 15.165 15.4286 15.0766V13.692H16V15.0766C16 15.3398 15.912 15.5594 15.736 15.7354C15.56 15.9114 15.3402 15.9996 15.0766 16H8.92343Z" fill="black" fill-opacity="0.3"/>
</svg>
