<svg width="56" height="56" viewBox="0 0 56 56" fill="none" xmlns="http://www.w3.org/2000/svg">
<circle cx="28" cy="28" r="28" fill="#E1E5FD"/>
<path d="M18.893 18.2418H31.8573C32.1814 18.2418 32.4466 17.9702 32.4466 17.6383V14.6211C32.4466 14.2892 32.1814 14.0176 31.8573 14.0176H18.893C18.5689 14.0176 18.3038 14.2892 18.3038 14.6211V17.6383C18.3038 17.9702 18.5689 18.2418 18.893 18.2418ZM19.4823 15.2245H31.268V17.0349H19.4823V15.2245ZM15.9466 20.6554C15.9466 20.3235 16.2118 20.0519 16.5359 20.0519H33.625C33.9491 20.0519 34.2143 20.3235 34.2143 20.6554C34.2143 20.9873 33.9491 21.2588 33.625 21.2588H16.5359C16.2118 21.2588 15.9466 20.9873 15.9466 20.6554ZM30.4255 24.2761C30.4255 24.608 30.1603 24.8795 29.8362 24.8795H22.4288C22.1047 24.8795 21.8395 24.608 21.8395 24.2761C21.8395 23.9442 22.1047 23.6726 22.4288 23.6726H29.8362C30.1603 23.6726 30.4255 23.9442 30.4255 24.2761ZM21.8395 27.8967C21.8395 27.5648 22.1047 27.2933 22.4288 27.2933H27.3905C27.7146 27.2933 27.9797 27.5648 27.9797 27.8967C27.9797 28.2286 27.7146 28.5002 27.3905 28.5002H22.4288C22.1047 28.5002 21.8395 28.2286 21.8395 27.8967ZM21.8395 31.5174C21.8395 31.1855 22.1047 30.914 22.4288 30.914H26.5713C26.8954 30.914 27.1606 31.1855 27.1606 31.5174C27.1606 31.8493 26.8954 32.1209 26.5713 32.1209H22.4288C22.1047 32.1209 21.8395 31.8493 21.8395 31.5174ZM21.8395 35.1381C21.8395 34.8062 22.1047 34.5347 22.4288 34.5347H26.9722C27.2963 34.5347 27.5615 34.8062 27.5615 35.1381C27.5615 35.47 27.2963 35.7416 26.9722 35.7416H22.4288C22.1047 35.7416 21.8395 35.47 21.8395 35.1381ZM20.0716 30.9138H16.5359C16.2118 30.9138 15.9466 31.1853 15.9466 31.5172V35.1379C15.9466 35.4698 16.2118 35.7414 16.5359 35.7414H20.0716C20.3957 35.7414 20.6609 35.4698 20.6609 35.1379V31.5172C20.6609 31.1853 20.3957 30.9138 20.0716 30.9138ZM19.4823 34.5345H17.1252V32.1207H19.4823V34.5345ZM22.4288 38.1552H28.7753C29.0994 38.1552 29.3646 38.4267 29.3646 38.7586C29.3646 39.0905 29.0994 39.3621 28.7753 39.3621H22.4288C22.1047 39.3621 21.8395 39.0905 21.8395 38.7586C21.8395 38.4267 22.1047 38.1552 22.4288 38.1552ZM31.8573 42.3795C31.8573 42.7114 31.5922 42.983 31.268 42.983H22.4286C22.1045 42.983 21.8393 42.7114 21.8393 42.3795C21.8393 42.0476 22.1045 41.7761 22.4286 41.7761H31.268C31.5922 41.7761 31.8573 42.0476 31.8573 42.3795ZM20.0716 38.1552H16.5359C16.2118 38.1552 15.9466 38.4267 15.9466 38.7586V42.3793C15.9466 42.7112 16.2118 42.9828 16.5359 42.9828H20.0716C20.3957 42.9828 20.6609 42.7112 20.6609 42.3793V38.7586C20.6609 38.4267 20.3957 38.1552 20.0716 38.1552ZM19.4823 41.7759H17.1252V39.3621H19.4823V41.7759ZM20.0716 23.6724H16.5359C16.2118 23.6724 15.9466 23.944 15.9466 24.2759V27.8966C15.9466 28.2285 16.2118 28.5 16.5359 28.5H20.0716C20.3957 28.5 20.6609 28.2285 20.6609 27.8966V24.2759C20.6609 23.944 20.3957 23.6724 20.0716 23.6724ZM19.4823 27.2931H17.1252V24.8793H19.4823V27.2931ZM46 32.1207C46 27.3352 42.3464 23.4129 37.75 23.0993V12.8103C37.75 11.8147 36.9545 11 35.9821 11H14.7679C13.7955 11 13 11.8147 13 12.8103V44.1897C13 45.1853 13.7955 46 14.7679 46H35.9821C36.9545 46 37.75 45.1853 37.75 44.1897V41.1423C42.3466 40.8285 46 36.9058 46 32.1207ZM35.9823 44.7929H14.768C14.4439 44.7929 14.1788 44.5214 14.1788 44.1895V12.8102C14.1788 12.4783 14.4439 12.2067 14.768 12.2067H35.9823C36.3064 12.2067 36.5716 12.4783 36.5716 12.8102V23.0991C31.975 23.4129 28.3216 27.3354 28.3216 32.1205C28.3216 36.9056 31.9752 40.8283 36.5716 41.1419V44.1893C36.5716 44.5212 36.3064 44.7929 35.9823 44.7929ZM37.1609 39.9653C32.9358 39.9653 29.5004 36.4472 29.5004 32.1207C29.5004 27.7942 32.9359 24.2761 37.1609 24.2761C41.3859 24.2761 44.8214 27.7942 44.8214 32.1207C44.8214 36.4472 41.3859 39.9653 37.1609 39.9653ZM36.6659 25.6154C36.5304 25.8387 33.3011 31.0826 33.3011 34.4862C33.3011 36.7612 35.0336 38.6078 37.1668 38.6078C39.3 38.6078 41.0325 36.7552 41.0325 34.4862C41.0325 31.0828 37.8032 25.8329 37.6677 25.6154C37.4496 25.2654 36.8898 25.2654 36.6718 25.6154H36.6659ZM37.1609 37.4009C35.6818 37.4009 34.4738 36.0914 34.4738 34.4862C34.4738 32.1871 36.2652 28.7113 37.1609 27.112C38.0566 28.7051 39.848 32.181 39.848 34.4862C39.848 36.0975 38.6459 37.4009 37.1609 37.4009ZM37.1609 35.2104C37.485 35.2104 37.7502 35.4819 37.7502 35.8138C37.7502 36.1457 37.485 36.4173 37.1609 36.4173C36.2122 36.4173 35.4402 35.5543 35.4402 34.4862C35.4402 34.1543 35.7054 33.8828 36.0295 33.8828C36.3536 33.8828 36.6188 34.1543 36.6188 34.4862C36.6188 34.8785 36.8663 35.2104 37.1609 35.2104Z" fill="#5B6AEA"/>
</svg>
